# Blender v3.0.1 OBJ File: ''
# www.blender.org
o Cylinder
v 0.087071 -0.199729 0.948693
v 0.087071 -0.199729 0.948693
v 0.087071 -0.199729 0.948693
v 0.087071 -0.199729 0.948693
v 0.000000 -0.250000 -1.000000
v 0.000000 -0.250000 -1.000000
v 0.000000 -0.250000 -1.000000
v 0.000000 -0.250000 -1.000000
v 0.129435 -0.175271 0.948693
v 0.129435 -0.175271 0.948693
v 0.129435 -0.175271 0.948693
v 0.129435 -0.175271 0.948693
v 0.216506 -0.125000 -1.000000
v 0.216506 -0.125000 -1.000000
v 0.216506 -0.125000 -1.000000
v 0.216506 -0.125000 -1.000000
v 0.129435 0.175271 0.948693
v 0.129435 0.175271 0.948693
v 0.129435 0.175271 0.948693
v 0.129435 0.175271 0.948693
v 0.216506 0.125000 -1.000000
v 0.216506 0.125000 -1.000000
v 0.216506 0.125000 -1.000000
v 0.216506 0.125000 -1.000000
v 0.087071 0.199729 0.948693
v 0.087071 0.199729 0.948693
v 0.087071 0.199729 0.948693
v 0.087071 0.199729 0.948693
v -0.000000 0.250000 -1.000000
v -0.000000 0.250000 -1.000000
v -0.000000 0.250000 -1.000000
v -0.000000 0.250000 -1.000000
v -0.216506 0.024459 0.948693
v -0.216506 0.024459 0.948693
v -0.216506 0.024459 0.948693
v -0.216506 0.024459 0.948693
v -0.216506 0.125000 -1.000000
v -0.216506 0.125000 -1.000000
v -0.216506 0.125000 -1.000000
v -0.216506 0.125000 -1.000000
v -0.216506 -0.024459 0.948693
v -0.216506 -0.024459 0.948693
v -0.216506 -0.024459 0.948693
v -0.216506 -0.024459 0.948693
v -0.216506 -0.125000 -1.000000
v -0.216506 -0.125000 -1.000000
v -0.216506 -0.125000 -1.000000
v -0.216506 -0.125000 -1.000000
v 0.093496 -0.214466 0.606434
v 0.093496 -0.214466 0.606434
v 0.093496 -0.214466 0.606434
v 0.093496 -0.214466 0.606434
v 0.138985 -0.188203 0.606434
v 0.138985 -0.188203 0.606434
v 0.138985 -0.188203 0.606434
v 0.138985 -0.188203 0.606434
v 0.138985 0.188203 0.606434
v 0.138985 0.188203 0.606434
v 0.138985 0.188203 0.606434
v 0.138985 0.188203 0.606434
v 0.093496 0.214466 0.606434
v 0.093496 0.214466 0.606434
v 0.093496 0.214466 0.606434
v 0.093496 0.214466 0.606434
v -0.232481 0.026263 0.606434
v -0.232481 0.026263 0.606434
v -0.232481 0.026263 0.606434
v -0.232481 0.026263 0.606434
v -0.232481 -0.026263 0.606434
v -0.232481 -0.026263 0.606434
v -0.232481 -0.026263 0.606434
v -0.232481 -0.026263 0.606434
v 0.000000 0.000000 -1.335667
v 0.000000 0.000000 -1.335667
v 0.000000 0.000000 -1.335667
v 0.000000 0.000000 -1.335667
v 0.000000 0.000000 -1.335667
v 0.000000 0.000000 -1.335667
v 0.000000 -0.370826 0.092688
v 0.000000 -0.370826 0.092688
v 0.000000 -0.370826 0.092688
v 0.000000 -0.370826 0.092688
v 0.000000 -0.370826 -0.537561
v 0.000000 -0.370826 -0.537561
v 0.000000 -0.370826 -0.537561
v 0.000000 -0.370826 -0.537561
v 0.321145 -0.185413 -0.537561
v 0.321145 -0.185413 -0.537561
v 0.321145 -0.185413 -0.537561
v 0.321145 -0.185413 -0.537561
v 0.321145 -0.185413 0.092688
v 0.321145 -0.185413 0.092688
v 0.321145 -0.185413 0.092688
v 0.321145 -0.185413 0.092688
v 0.321145 0.185413 -0.537561
v 0.321145 0.185413 -0.537561
v 0.321145 0.185413 -0.537561
v 0.321145 0.185413 -0.537561
v 0.321145 0.185413 0.092688
v 0.321145 0.185413 0.092688
v 0.321145 0.185413 0.092688
v 0.321145 0.185413 0.092688
v -0.000000 0.370826 -0.537561
v -0.000000 0.370826 -0.537561
v -0.000000 0.370826 -0.537561
v -0.000000 0.370826 -0.537561
v -0.000000 0.370826 0.092688
v -0.000000 0.370826 0.092688
v -0.000000 0.370826 0.092688
v -0.000000 0.370826 0.092688
v -0.321145 0.185413 -0.537561
v -0.321145 0.185413 -0.537561
v -0.321145 0.185413 -0.537561
v -0.321145 0.185413 -0.537561
v -0.321145 0.185413 0.092688
v -0.321145 0.185413 0.092688
v -0.321145 0.185413 0.092688
v -0.321145 0.185413 0.092688
v -0.321145 -0.185413 -0.537561
v -0.321145 -0.185413 -0.537561
v -0.321145 -0.185413 -0.537561
v -0.321145 -0.185413 -0.537561
v -0.321145 -0.185413 0.092688
v -0.321145 -0.185413 0.092688
v -0.321145 -0.185413 0.092688
v -0.321145 -0.185413 0.092688
v 0.000000 0.000000 1.007897
v 0.000000 0.000000 1.007897
v 0.000000 0.000000 1.007897
v 0.000000 0.000000 1.007897
v 0.000000 0.000000 1.007897
v 0.000000 0.000000 1.007897
v 0.000000 -0.134239 1.000000
v 0.000000 -0.134239 1.000000
v 0.000000 -0.134239 1.000000
v 0.000000 -0.134239 1.000000
v 0.000000 -0.134239 1.000000
v 0.116255 -0.067120 1.000000
v 0.116255 -0.067120 1.000000
v 0.116255 -0.067120 1.000000
v 0.116255 -0.067120 1.000000
v 0.116255 -0.067120 1.000000
v 0.216506 -0.125000 0.555127
v 0.216506 -0.125000 0.555127
v 0.216506 -0.125000 0.555127
v 0.216506 -0.125000 0.555127
v 0.216506 -0.125000 0.555127
v 0.216506 0.125000 0.555127
v 0.216506 0.125000 0.555127
v 0.216506 0.125000 0.555127
v 0.216506 0.125000 0.555127
v 0.216506 0.125000 0.555127
v 0.116255 0.067120 1.000000
v 0.116255 0.067120 1.000000
v 0.116255 0.067120 1.000000
v 0.116255 0.067120 1.000000
v 0.116255 0.067120 1.000000
v -0.000000 0.134240 1.000000
v -0.000000 0.134240 1.000000
v -0.000000 0.134240 1.000000
v -0.000000 0.134240 1.000000
v -0.000000 0.134240 1.000000
v -0.000000 0.250000 0.555127
v -0.000000 0.250000 0.555127
v -0.000000 0.250000 0.555127
v -0.000000 0.250000 0.555127
v -0.000000 0.250000 0.555127
v -0.216506 0.125000 0.555127
v -0.216506 0.125000 0.555127
v -0.216506 0.125000 0.555127
v -0.216506 0.125000 0.555127
v -0.216506 0.125000 0.555127
v -0.116255 0.067120 1.000000
v -0.116255 0.067120 1.000000
v -0.116255 0.067120 1.000000
v -0.116255 0.067120 1.000000
v -0.116255 0.067120 1.000000
v -0.116255 -0.067120 1.000000
v -0.116255 -0.067120 1.000000
v -0.116255 -0.067120 1.000000
v -0.116255 -0.067120 1.000000
v -0.116255 -0.067120 1.000000
v -0.216506 -0.125000 0.555127
v -0.216506 -0.125000 0.555127
v -0.216506 -0.125000 0.555127
v -0.216506 -0.125000 0.555127
v -0.216506 -0.125000 0.555127
v 0.000000 -0.250000 0.555127
v 0.000000 -0.250000 0.555127
v 0.000000 -0.250000 0.555127
v 0.000000 -0.250000 0.555127
v 0.000000 -0.250000 0.555127
v 0.333859 -0.627179 1.454582
v 0.333859 -0.627179 1.454582
v 0.333859 -0.627179 1.454582
v 0.376223 -0.602720 1.454582
v 0.376223 -0.602720 1.454582
v 0.376223 -0.602720 1.454582
v 0.376223 -0.602720 1.112323
v 0.376223 -0.602720 1.112323
v 0.376223 -0.602720 1.112323
v 0.376223 0.602720 1.112323
v 0.376223 0.602720 1.112323
v 0.376223 0.602720 1.112323
v 0.376223 0.602720 1.454582
v 0.376223 0.602720 1.454582
v 0.376223 0.602720 1.454582
v 0.333859 0.627179 1.454582
v 0.333859 0.627179 1.454582
v 0.333859 0.627179 1.454582
v 0.333859 0.627179 1.112323
v 0.333859 0.627179 1.112323
v 0.333859 0.627179 1.112323
v -0.710082 0.024459 1.112323
v -0.710082 0.024459 1.112323
v -0.710082 0.024459 1.112323
v -0.710082 0.024459 1.454582
v -0.710082 0.024459 1.454582
v -0.710082 0.024459 1.454582
v -0.710082 -0.024459 1.454582
v -0.710082 -0.024459 1.454582
v -0.710082 -0.024459 1.454582
v -0.710082 -0.024459 1.112323
v -0.710082 -0.024459 1.112323
v -0.710082 -0.024459 1.112323
v 0.333859 -0.627179 1.112323
v 0.333859 -0.627179 1.112323
v 0.333859 -0.627179 1.112323
v 0.000000 -0.250000 1.148756
v 0.000000 -0.250000 1.148756
v 0.000000 -0.250000 1.148756
v 0.000000 -0.250000 1.148756
v 0.216506 -0.125000 1.148756
v 0.216506 -0.125000 1.148756
v 0.216506 -0.125000 1.148756
v 0.216506 -0.125000 1.148756
v 0.216506 0.125000 1.148756
v 0.216506 0.125000 1.148756
v 0.216506 0.125000 1.148756
v 0.216506 0.125000 1.148756
v -0.000000 0.250000 1.148756
v -0.000000 0.250000 1.148756
v -0.000000 0.250000 1.148756
v -0.000000 0.250000 1.148756
v -0.216506 0.125000 1.148756
v -0.216506 0.125000 1.148756
v -0.216506 0.125000 1.148756
v -0.216506 0.125000 1.148756
v -0.216506 -0.125000 1.148756
v -0.216506 -0.125000 1.148756
v -0.216506 -0.125000 1.148756
v -0.216506 -0.125000 1.148756
vn 0.4877 -0.8447 -0.2207
vn 0.9753 0.0000 -0.2207
vn 0.4877 0.8447 -0.2207
vn -0.4877 0.8447 -0.2207
vn -0.9753 0.0000 -0.2207
vn -0.4877 -0.8447 -0.2207
vn 0.4146 0.7182 -0.5589
vn -0.4878 -0.8448 0.2198
vn 0.3636 0.6297 -0.6865
vn -0.4878 0.8448 0.2198
vn -0.3579 -0.6199 0.6983
vn 0.9755 0.0000 0.2198
vn 0.7158 0.0000 0.6983
vn -0.4202 -0.7278 -0.5420
vn -0.4202 0.7278 -0.5420
vn 0.8404 0.0000 -0.5420
vn -0.8404 0.0000 -0.5420
vn 0.4202 -0.7278 -0.5420
vn -0.4877 -0.8447 0.2207
vn -0.5000 -0.8660 0.0000
vn -0.9753 -0.0000 0.2207
vn -1.0000 0.0000 0.0000
vn -0.4877 0.8447 0.2207
vn -0.5000 0.8660 0.0000
vn 0.4877 0.8447 0.2207
vn 0.5000 0.8660 0.0000
vn 0.9753 -0.0000 0.2207
vn 1.0000 0.0000 0.0000
vn 0.4877 -0.8447 0.2207
vn 0.5000 -0.8660 0.0000
vn -0.4146 -0.7182 -0.5589
vn -0.4146 0.7182 -0.5589
vn 0.8293 0.0000 -0.5589
vn -0.8293 0.0000 -0.5589
vn 0.4146 -0.7182 -0.5589
vn 0.2278 -0.3945 0.8902
vn 0.2278 0.3945 0.8902
vn -0.4556 0.0000 0.8902
vn -0.9548 0.0000 -0.2973
vn 0.4774 0.8269 -0.2973
vn 0.4774 -0.8269 -0.2973
vn -0.3579 0.6199 0.6983
vn 0.3636 -0.6297 -0.6865
vn -0.7271 -0.0000 -0.6865
vn -0.5453 -0.0000 0.8382
vn -0.2727 -0.4723 0.8382
vn 0.2727 -0.4723 0.8382
vn 0.2727 0.4723 0.8382
vn 0.4202 0.7278 -0.5420
vn 0.9241 -0.3470 0.1601
vn 0.9241 -0.3470 0.1602
vn 0.9241 0.3470 0.1601
vn -0.1616 0.9738 0.1601
vn -0.1615 0.9738 0.1601
vn -0.1615 0.9738 0.1602
vn -0.7626 0.6268 0.1601
vn -0.7625 0.6268 0.1601
vn -0.7625 -0.6268 0.1601
vn -0.7626 -0.6268 0.1601
vn -0.7626 -0.6268 0.1602
vn -0.1615 -0.9738 0.1601
vn -0.1616 -0.9738 0.1601
vn 0.0009 -1.0000 0.0026
vn 0.0008 -1.0000 0.0026
vn -0.8665 0.4992 0.0026
vn -0.8665 0.4993 0.0026
vn 0.8656 0.5008 0.0026
vn 0.8656 0.5007 0.0026
vn -0.8665 -0.4992 0.0027
vn -0.8665 -0.4992 0.0026
vn -0.8665 -0.4993 0.0026
vn 0.0009 1.0000 0.0026
vn 0.8656 -0.5007 0.0026
vn 0.8656 -0.5008 0.0026
vn -0.2727 0.4723 0.8382
vn 0.5453 0.0000 0.8382
s off
f 85//1 8//1 14//1
f 85//1 14//1 87//1
f 89//2 16//2 24//2
f 89//2 24//2 97//2
f 95//3 22//3 32//3
f 95//3 32//3 105//3
f 104//4 29//4 39//4
f 104//4 39//4 114//4
f 112//5 37//5 45//5
f 122//6 47//6 5//6
f 122//6 5//6 84//6
f 154//7 162//7 244//7
f 154//7 244//7 239//7
f 180//8 186//8 188//8
f 180//8 188//8 133//8
f 57//9 63//9 212//9
f 57//9 212//9 202//9
f 158//10 163//10 171//10
f 158//10 171//10 175//10
f 26//11 17//11 205//11
f 26//11 205//11 209//11
f 142//12 152//12 157//12
f 44//13 219//13 222//13
f 6//14 48//14 75//14
f 40//15 30//15 74//15
f 23//16 15//16 78//16
f 46//17 38//17 73//17
f 13//18 7//18 77//18
f 187//19 126//19 80//19
f 187//19 80//19 189//19
f 125//20 121//20 83//20
f 125//20 83//20 79//20
f 168//21 116//21 124//21
f 168//21 124//21 183//21
f 115//22 111//22 119//22
f 115//22 119//22 123//22
f 164//23 108//23 118//23
f 164//23 118//23 172//23
f 107//24 103//24 113//24
f 107//24 113//24 117//24
f 149//25 99//25 109//25
f 149//25 109//25 167//25
f 100//26 96//26 106//26
f 100//26 106//26 110//26
f 146//27 93//27 101//27
f 146//27 101//27 151//27
f 94//28 90//28 98//28
f 94//28 98//28 102//28
f 192//29 81//29 91//29
f 192//29 91//29 144//29
f 82//30 86//30 88//30
f 82//30 88//30 92//30
f 182//31 134//31 229//31
f 182//31 229//31 250//31
f 159//32 177//32 246//32
f 159//32 246//32 241//32
f 140//33 155//33 240//33
f 140//33 240//33 236//33
f 173//34 178//34 249//34
f 173//34 249//34 245//34
f 137//35 139//35 235//35
f 137//35 235//35 232//35
f 4//36 10//36 138//36
f 4//36 138//36 136//36
f 18//37 28//37 161//37
f 34//38 42//38 181//38
f 34//38 181//38 176//38
f 69//39 169//39 184//39
f 64//40 58//40 148//40
f 64//40 148//40 166//40
f 54//41 52//41 191//41
f 54//41 191//41 143//41
f 217//22 214//22 223//22
f 217//22 223//22 220//22
f 206//26 203//26 213//26
f 206//26 213//26 210//26
f 195//30 228//30 200//30
f 195//30 200//30 197//30
f 9//42 2//42 194//42
f 9//42 194//42 196//42
f 51//43 53//43 199//43
f 51//43 199//43 227//43
f 67//44 71//44 224//44
f 67//44 224//44 215//44
f 127//45 233//45 237//45
f 129//46 238//46 242//46
f 131//47 243//47 247//47
f 130//48 251//48 231//48
s 1
f 31//49 21//49 76//49
f 112//5 45//5 120//5
f 142//12 147//12 152//12
f 44//13 36//13 219//13
f 12//50 56//50 145//50
f 12//50 145//50 141//51
f 60//52 20//52 156//52
f 60//52 156//52 150//52
f 18//37 161//37 153//37
f 27//53 62//54 165//53
f 27//53 165//53 160//55
f 66//56 33//56 174//57
f 66//56 174//57 170//57
f 41//58 70//59 185//58
f 41//58 185//58 179//60
f 50//61 3//61 135//62
f 50//61 135//62 190//62
f 69//39 65//39 169//39
f 72//63 43//63 221//64
f 72//63 221//64 225//63
f 61//65 25//65 208//65
f 61//65 208//65 211//66
f 55//67 11//68 198//68
f 55//67 198//68 201//68
f 1//69 49//70 226//70
f 1//69 226//70 193//71
f 35//72 68//72 216//72
f 35//72 216//72 218//72
f 19//73 59//74 204//74
f 19//73 204//74 207//74
f 128//75 230//75 234//75
f 132//76 248//76 252//76
